<?xml version="1.0" encoding="UTF-8" standalone="no"?>
<svg width="133px" height="38px" viewBox="0 0 133 38" version="1.1" xmlns="http://www.w3.org/2000/svg" xmlns:xlink="http://www.w3.org/1999/xlink" xmlns:sketch="http://www.bohemiancoding.com/sketch/ns">
    <title>app-store</title>
    <description>Created with Sketch (http://www.bohemiancoding.com/sketch)</description>
    <defs></defs>
    <g id="Page-1" stroke="none" stroke-width="1" fill="none" fill-rule="evenodd" sketch:type="MSPage">
        <path d="M133.032,34.268 C133.032,36.384 131.318,38.098 129.198,38.098 L3.729,38.098 C1.61,38.098 -0.11,36.384 -0.11,34.268 L-0.11,3.725 C-0.11,1.61 1.61,-0.11 3.729,-0.11 L129.197,-0.11 C131.318,-0.11 133.031,1.61 133.031,3.725 L133.032,34.268 L133.032,34.268 Z" id="Shape" fill="#FFFFFF" sketch:type="MSShapeGroup"></path>
        <path d="M133.032,34.268 C133.032,36.384 131.318,38.098 129.198,38.098 L3.729,38.098 C1.61,38.098 -0.11,36.384 -0.11,34.268 L-0.11,3.725 C-0.11,1.61 1.61,-0.11 3.729,-0.11 L129.197,-0.11 C131.318,-0.11 133.031,1.61 133.031,3.725 L133.032,34.268 L133.032,34.268 Z" id="Shape" fill="#000000" sketch:type="MSShapeGroup"></path>
        <path d="M29.128,18.784 C29.099,15.561 31.767,13.993 31.889,13.92 C30.378,11.717 28.036,11.416 27.213,11.392 C25.246,11.185 23.338,12.569 22.336,12.569 C21.314,12.569 19.771,11.412 18.108,11.446 C15.968,11.479 13.966,12.718 12.868,14.642 C10.602,18.565 12.292,24.33 14.463,27.501 C15.549,29.055 16.818,30.788 18.479,30.727 C20.104,30.661 20.711,29.692 22.672,29.692 C24.615,29.692 25.185,30.727 26.879,30.688 C28.623,30.661 29.721,29.128 30.769,27.561 C32.024,25.782 32.528,24.028 32.548,23.938 C32.508,23.924 29.162,22.646 29.128,18.784 L29.128,18.784 Z" id="Shape" fill="#FFFFFF" sketch:type="MSShapeGroup"></path>
        <path d="M25.928,9.306 C26.802,8.213 27.4,6.726 27.234,5.217 C25.969,5.273 24.387,6.092 23.476,7.161 C22.67,8.103 21.95,9.647 22.136,11.099 C23.557,11.205 25.016,10.382 25.928,9.306 L25.928,9.306 Z" id="Shape" fill="#FFFFFF" sketch:type="MSShapeGroup"></path>
        <path d="M52.665,30.504 L50.394,30.504 L49.15,26.595 L44.826,26.595 L43.641,30.504 L41.43,30.504 L45.715,17.196 L48.361,17.196 L52.665,30.504 L52.665,30.504 Z M48.775,24.955 L47.65,21.48 C47.531,21.125 47.307,20.289 46.979,18.973 L46.939,18.973 C46.807,19.539 46.596,20.375 46.307,21.48 L45.201,24.955 L48.775,24.955 L48.775,24.955 Z" id="Shape" fill="#FFFFFF" sketch:type="MSShapeGroup"></path>
        <path d="M63.663,25.588 C63.663,27.22 63.22,28.51 62.333,29.457 C61.539,30.3 60.552,30.721 59.375,30.721 C58.104,30.721 57.19,30.268 56.635,29.36 L56.635,34.395 L54.503,34.395 L54.503,24.062 C54.503,23.037 54.476,21.986 54.424,20.908 L56.299,20.908 L56.418,22.429 L56.458,22.429 C57.169,21.283 58.248,20.71 59.696,20.71 C60.828,20.71 61.773,21.157 62.529,22.052 C63.284,22.949 63.663,24.127 63.663,25.588 L63.663,25.588 Z M61.491,25.666 C61.491,24.732 61.281,23.962 60.859,23.355 C60.398,22.724 59.779,22.408 59.003,22.408 C58.477,22.408 57.999,22.584 57.572,22.931 C57.144,23.281 56.864,23.738 56.733,24.304 C56.667,24.568 56.634,24.783 56.634,24.953 L56.634,26.554 C56.634,27.251 56.848,27.84 57.276,28.322 C57.704,28.802 58.26,29.043 58.944,29.043 C59.747,29.043 60.372,28.732 60.819,28.115 C61.267,27.496 61.491,26.68 61.491,25.666 L61.491,25.666 Z" id="Shape" fill="#FFFFFF" sketch:type="MSShapeGroup"></path>
        <path d="M74.7,25.588 C74.7,27.22 74.257,28.51 73.37,29.457 C72.575,30.3 71.589,30.721 70.411,30.721 C69.14,30.721 68.226,30.268 67.671,29.36 L67.671,34.395 L65.539,34.395 L65.539,24.062 C65.539,23.037 65.512,21.986 65.46,20.908 L67.335,20.908 L67.454,22.429 L67.494,22.429 C68.204,21.283 69.283,20.71 70.732,20.71 C71.863,20.71 72.808,21.157 73.566,22.052 C74.32,22.949 74.7,24.127 74.7,25.588 L74.7,25.588 Z M72.527,25.666 C72.527,24.732 72.316,23.962 71.894,23.355 C71.433,22.724 70.816,22.408 70.04,22.408 C69.514,22.408 69.036,22.584 68.607,22.931 C68.179,23.281 67.9,23.738 67.769,24.304 C67.704,24.568 67.669,24.783 67.669,24.953 L67.669,26.554 C67.669,27.251 67.884,27.84 68.31,28.322 C68.738,28.801 69.294,29.043 69.98,29.043 C70.784,29.043 71.409,28.732 71.855,28.115 C72.303,27.496 72.527,26.68 72.527,25.666 L72.527,25.666 Z" id="Shape" fill="#FFFFFF" sketch:type="MSShapeGroup"></path>
        <path d="M87.04,26.771 C87.04,27.904 86.644,28.825 85.857,29.536 C84.991,30.312 83.782,30.701 82.232,30.701 C80.8,30.701 79.652,30.425 78.786,29.872 L79.279,28.095 C80.214,28.649 81.241,28.925 82.359,28.925 C83.163,28.925 83.788,28.743 84.234,28.382 C84.681,28.02 84.907,27.536 84.907,26.932 C84.907,26.391 84.72,25.938 84.353,25.569 C83.984,25.201 83.374,24.858 82.517,24.543 C80.187,23.674 79.021,22.403 79.021,20.731 C79.021,19.639 79.433,18.745 80.255,18.046 C81.077,17.348 82.167,16.999 83.523,16.999 C84.734,16.999 85.743,17.21 86.544,17.631 L86.009,19.369 C85.255,18.961 84.404,18.757 83.452,18.757 C82.7,18.757 82.11,18.942 81.688,19.31 C81.333,19.639 81.153,20.04 81.153,20.516 C81.153,21.041 81.358,21.477 81.766,21.819 C82.12,22.134 82.766,22.477 83.7,22.845 C84.846,23.307 85.688,23.845 86.227,24.463 C86.77,25.081 87.04,25.852 87.04,26.771 L87.04,26.771 Z" id="Shape" fill="#FFFFFF" sketch:type="MSShapeGroup"></path>
        <path d="M94.107,22.508 L91.757,22.508 L91.757,27.167 C91.757,28.352 92.171,28.943 93.001,28.943 C93.382,28.943 93.698,28.911 93.948,28.844 L94.007,30.463 C93.587,30.62 93.034,30.699 92.349,30.699 C91.507,30.699 90.849,30.442 90.374,29.928 C89.901,29.414 89.663,28.553 89.663,27.341 L89.663,22.504 L88.263,22.504 L88.263,20.904 L89.663,20.904 L89.663,19.147 L91.757,18.515 L91.757,20.904 L94.107,20.904 L94.107,22.508 L94.107,22.508 Z" id="Shape" fill="#FFFFFF" sketch:type="MSShapeGroup"></path>
        <path d="M104.689,25.627 C104.689,27.102 104.267,28.313 103.425,29.26 C102.544,30.235 101.372,30.721 99.911,30.721 C98.501,30.721 97.38,30.254 96.544,29.321 C95.708,28.386 95.29,27.208 95.29,25.787 C95.29,24.3 95.722,23.082 96.583,22.135 C97.446,21.187 98.608,20.713 100.069,20.713 C101.477,20.713 102.608,21.181 103.464,22.115 C104.282,23.021 104.689,24.191 104.689,25.627 L104.689,25.627 Z M102.479,25.676 C102.479,24.797 102.289,24.043 101.908,23.412 C101.461,22.65 100.821,22.269 99.992,22.269 C99.138,22.269 98.483,22.65 98.037,23.412 C97.655,24.043 97.465,24.81 97.465,25.716 C97.465,26.596 97.655,27.352 98.037,27.981 C98.498,28.743 99.141,29.124 99.974,29.124 C100.789,29.124 101.428,28.735 101.89,27.962 C102.282,27.316 102.479,26.557 102.479,25.676 L102.479,25.676 Z" id="Shape" fill="#FFFFFF" sketch:type="MSShapeGroup"></path>
        <path d="M111.622,22.783 C111.411,22.744 111.185,22.724 110.95,22.724 C110.2,22.724 109.62,23.006 109.212,23.574 C108.858,24.074 108.68,24.706 108.68,25.469 L108.68,30.504 L106.548,30.504 L106.548,23.93 C106.548,22.825 106.527,21.817 106.486,20.909 L108.343,20.909 L108.421,22.745 L108.48,22.745 C108.706,22.114 109.06,21.605 109.546,21.224 C110.021,20.881 110.534,20.71 111.087,20.71 C111.284,20.71 111.462,20.724 111.62,20.749 L111.622,22.783 L111.622,22.783 Z" id="Shape" fill="#FFFFFF" sketch:type="MSShapeGroup"></path>
        <path d="M121.157,25.252 C121.157,25.634 121.132,25.956 121.079,26.219 L114.683,26.219 C114.707,27.167 115.017,27.893 115.611,28.393 C116.15,28.839 116.847,29.063 117.703,29.063 C118.65,29.063 119.514,28.913 120.291,28.61 L120.625,30.089 C119.717,30.485 118.645,30.682 117.408,30.682 C115.92,30.682 114.752,30.244 113.902,29.37 C113.054,28.495 112.629,27.319 112.629,25.846 C112.629,24.4 113.024,23.195 113.815,22.234 C114.643,21.208 115.762,20.695 117.17,20.695 C118.553,20.695 119.6,21.208 120.311,22.234 C120.874,23.047 121.157,24.055 121.157,25.252 L121.157,25.252 Z M119.124,24.699 C119.139,24.066 118.999,23.521 118.71,23.06 C118.341,22.466 117.773,22.17 117.012,22.17 C116.315,22.17 115.747,22.459 115.315,23.039 C114.96,23.5 114.749,24.054 114.684,24.697 L119.124,24.699 L119.124,24.699 Z" id="Shape" fill="#FFFFFF" sketch:type="MSShapeGroup"></path>
        <path d="M44.211,12.491 C43.618,12.491 43.105,12.462 42.678,12.413 L42.678,5.979 C43.231,5.892 43.832,5.843 44.483,5.843 C46.928,5.843 48.054,7.046 48.054,9.007 C48.054,11.269 46.724,12.491 44.211,12.491 L44.211,12.491 Z M44.569,6.668 C44.239,6.668 43.958,6.688 43.725,6.736 L43.725,11.627 C43.851,11.647 44.093,11.656 44.433,11.656 C46.035,11.656 46.947,10.744 46.947,9.036 C46.947,7.513 46.122,6.668 44.569,6.668 L44.569,6.668 Z" id="Shape" fill="#FFFFFF" sketch:type="MSShapeGroup"></path>
        <path d="M51.563,12.54 C50.185,12.54 49.292,11.511 49.292,10.114 C49.292,8.658 50.204,7.62 51.641,7.62 C52.999,7.62 53.912,8.6 53.912,10.037 C53.912,11.511 52.971,12.54 51.563,12.54 L51.563,12.54 Z M51.603,8.386 C50.846,8.386 50.361,9.094 50.361,10.084 C50.361,11.055 50.856,11.763 51.593,11.763 C52.33,11.763 52.825,11.006 52.825,10.064 C52.825,9.104 52.34,8.386 51.603,8.386 L51.603,8.386 Z" id="Shape" fill="#FFFFFF" sketch:type="MSShapeGroup"></path>
        <path d="M61.77,7.717 L60.295,12.433 L59.334,12.433 L58.723,10.385 C58.568,9.871 58.442,9.366 58.344,8.862 L58.324,8.862 C58.247,9.376 58.101,9.891 57.946,10.385 L57.296,12.433 L56.325,12.433 L54.937,7.717 L56.014,7.717 L56.548,9.959 C56.674,10.493 56.78,10.997 56.868,11.473 L56.888,11.473 C56.965,11.076 57.091,10.58 57.276,9.969 L57.946,7.718 L58.8,7.718 L59.441,9.921 C59.596,10.455 59.722,10.979 59.82,11.474 L59.848,11.474 C59.916,10.989 60.023,10.474 60.168,9.921 L60.741,7.718 L61.77,7.717 L61.77,7.717 Z" id="Shape" fill="#FFFFFF" sketch:type="MSShapeGroup"></path>
        <path d="M67.2,12.433 L66.152,12.433 L66.152,9.725 C66.152,8.891 65.832,8.473 65.201,8.473 C64.58,8.473 64.153,9.007 64.153,9.628 L64.153,12.433 L63.105,12.433 L63.105,9.065 C63.105,8.648 63.095,8.201 63.066,7.716 L63.988,7.716 L64.037,8.444 L64.066,8.444 C64.348,7.94 64.92,7.62 65.561,7.62 C66.551,7.62 67.201,8.377 67.201,9.609 L67.2,12.433 L67.2,12.433 Z" id="Shape" fill="#FFFFFF" sketch:type="MSShapeGroup"></path>
        <path d="M70.09,12.433 L69.041,12.433 L69.041,5.553 L70.09,5.553 L70.09,12.433 L70.09,12.433 Z" id="Shape" fill="#FFFFFF" sketch:type="MSShapeGroup"></path>
        <path d="M73.911,12.54 C72.534,12.54 71.64,11.511 71.64,10.114 C71.64,8.658 72.552,7.62 73.988,7.62 C75.347,7.62 76.259,8.6 76.259,10.037 C76.26,11.511 75.318,12.54 73.911,12.54 L73.911,12.54 Z M73.95,8.386 C73.193,8.386 72.708,9.094 72.708,10.084 C72.708,11.055 73.204,11.763 73.939,11.763 C74.677,11.763 75.171,11.006 75.171,10.064 C75.172,9.104 74.688,8.386 73.95,8.386 L73.95,8.386 Z" id="Shape" fill="#FFFFFF" sketch:type="MSShapeGroup"></path>
        <path d="M80.391,12.433 L80.315,11.89 L80.287,11.89 C79.967,12.327 79.5,12.54 78.908,12.54 C78.063,12.54 77.463,11.948 77.463,11.152 C77.463,9.988 78.472,9.386 80.219,9.386 L80.219,9.299 C80.219,8.678 79.89,8.367 79.24,8.367 C78.775,8.367 78.367,8.484 78.008,8.717 L77.795,8.028 C78.231,7.756 78.775,7.62 79.414,7.62 C80.646,7.62 81.268,8.27 81.268,9.571 L81.268,11.308 C81.268,11.784 81.289,12.153 81.336,12.434 L80.391,12.433 L80.391,12.433 Z M80.247,10.084 C79.083,10.084 78.499,10.366 78.499,11.035 C78.499,11.53 78.8,11.772 79.218,11.772 C79.751,11.772 80.247,11.365 80.247,10.812 L80.247,10.084 L80.247,10.084 Z" id="Shape" fill="#FFFFFF" sketch:type="MSShapeGroup"></path>
        <path d="M86.357,12.433 L86.308,11.676 L86.279,11.676 C85.978,12.248 85.472,12.54 84.765,12.54 C83.628,12.54 82.786,11.54 82.786,10.133 C82.786,8.658 83.659,7.619 84.851,7.619 C85.482,7.619 85.929,7.832 86.181,8.26 L86.202,8.26 L86.202,5.553 L87.251,5.553 L87.251,11.162 C87.251,11.618 87.262,12.045 87.29,12.433 L86.357,12.433 L86.357,12.433 Z M86.202,9.658 C86.202,8.998 85.765,8.435 85.098,8.435 C84.321,8.435 83.846,9.124 83.846,10.094 C83.846,11.045 84.339,11.696 85.077,11.696 C85.736,11.696 86.202,11.123 86.202,10.444 L86.202,9.658 L86.202,9.658 Z" id="Shape" fill="#FFFFFF" sketch:type="MSShapeGroup"></path>
        <path d="M93.902,12.54 C92.525,12.54 91.632,11.511 91.632,10.114 C91.632,8.658 92.544,7.62 93.98,7.62 C95.339,7.62 96.251,8.6 96.251,10.037 C96.252,11.511 95.311,12.54 93.902,12.54 L93.902,12.54 Z M93.941,8.386 C93.185,8.386 92.7,9.094 92.7,10.084 C92.7,11.055 93.195,11.763 93.931,11.763 C94.669,11.763 95.163,11.006 95.163,10.064 C95.165,9.104 94.68,8.386 93.941,8.386 L93.941,8.386 Z" id="Shape" fill="#FFFFFF" sketch:type="MSShapeGroup"></path>
        <path d="M101.887,12.433 L100.838,12.433 L100.838,9.725 C100.838,8.891 100.518,8.473 99.887,8.473 C99.266,8.473 98.84,9.007 98.84,9.628 L98.84,12.433 L97.791,12.433 L97.791,9.065 C97.791,8.648 97.781,8.201 97.752,7.716 L98.674,7.716 L98.723,8.444 L98.752,8.444 C99.033,7.94 99.606,7.619 100.246,7.619 C101.236,7.619 101.887,8.376 101.887,9.608 L101.887,12.433 L101.887,12.433 Z" id="Shape" fill="#FFFFFF" sketch:type="MSShapeGroup"></path>
        <path d="M108.938,8.503 L107.785,8.503 L107.785,10.793 C107.785,11.376 107.987,11.667 108.395,11.667 C108.58,11.667 108.735,11.647 108.86,11.618 L108.889,12.414 C108.686,12.492 108.414,12.531 108.076,12.531 C107.25,12.531 106.756,12.075 106.756,10.881 L106.756,8.503 L106.068,8.503 L106.068,7.717 L106.756,7.717 L106.756,6.853 L107.785,6.542 L107.785,7.716 L108.938,7.716 L108.938,8.503 L108.938,8.503 Z" id="Shape" fill="#FFFFFF" sketch:type="MSShapeGroup"></path>
        <path d="M114.486,12.433 L113.439,12.433 L113.439,9.745 C113.439,8.901 113.12,8.474 112.488,8.474 C111.945,8.474 111.439,8.843 111.439,9.59 L111.439,12.433 L110.392,12.433 L110.392,5.553 L111.439,5.553 L111.439,8.386 L111.46,8.386 C111.79,7.872 112.268,7.619 112.878,7.619 C113.876,7.619 114.486,8.395 114.486,9.628 L114.486,12.433 L114.486,12.433 Z" id="Shape" fill="#FFFFFF" sketch:type="MSShapeGroup"></path>
        <path d="M120.17,10.327 L117.025,10.327 C117.045,11.22 117.636,11.724 118.511,11.724 C118.976,11.724 119.404,11.646 119.782,11.501 L119.945,12.229 C119.499,12.423 118.974,12.52 118.363,12.52 C116.888,12.52 116.015,11.588 116.015,10.143 C116.015,8.697 116.909,7.61 118.245,7.61 C119.45,7.61 120.206,8.503 120.206,9.852 C120.209,10.036 120.2,10.201 120.17,10.327 L120.17,10.327 Z M119.209,9.58 C119.209,8.852 118.842,8.338 118.172,8.338 C117.57,8.338 117.094,8.862 117.026,9.58 L119.209,9.58 L119.209,9.58 Z" id="Shape" fill="#FFFFFF" sketch:type="MSShapeGroup"></path>
    </g>
</svg>